# xmcd CD database file
#
# Track frame offsets:
#	150
#	46036
#	71335
#	108979
#	170165
#	188294
#	210951
#	244037
#	293101
#
# Disc length: 4103 seconds
#
# Revision: 0
# Processed by: cddbd v1.5.2PL0 Copyright (c) Steve Scherf et al.
# Submitted via: CDex 1.51
#
DISCID=70100509
DTITLE=Monty Alexander Trio - Montreux Alexander
DYEAR=2007
DGENRE=Jazz
TTITLE0=Night Mist Blues
TTITLE1=Feelings
TTITLE2=Satin Doll
TTITLE3=Work Song
TTITLE4=I'll Drown In My Own Tears
TTITLE5=Battle Hymn Of The Republic
TTITLE6=Montevideo
TTITLE7=You Made Me Feel Brand New
TTITLE8=That's The Way It Is
EXTD=YEAR: 2007
EXTT0=
EXTT1=
EXTT2=
EXTT3=
EXTT4=
EXTT5=
EXTT6=
EXTT7=
EXTT8=
PLAYORDER=
